<svg width="512" height="512" viewBox="0 0 512 512" fill="none" xmlns="http://www.w3.org/2000/svg">
<circle cx="256" cy="256" r="256" fill="#ECECEC"/>
<path d="M128.631 227.153C128.157 221.945 126.05 217.897 122.31 215.009C118.616 212.073 113.337 210.605 106.472 210.605C101.926 210.605 98.1383 211.197 95.108 212.381C92.0777 213.564 89.8049 215.198 88.2898 217.281C86.7746 219.317 85.9934 221.661 85.946 224.312C85.8513 226.491 86.2775 228.408 87.2244 230.065C88.2188 231.723 89.6392 233.19 91.4858 234.469C93.3797 235.7 95.6525 236.789 98.304 237.736C100.955 238.683 103.938 239.511 107.253 240.222L119.753 243.062C126.95 244.625 133.295 246.708 138.787 249.312C144.327 251.917 148.967 255.018 152.707 258.616C156.495 262.215 159.36 266.358 161.301 271.045C163.242 275.733 164.237 280.989 164.284 286.812C164.237 295.998 161.917 303.882 157.324 310.463C152.731 317.045 146.126 322.087 137.509 325.591C128.938 329.095 118.593 330.847 106.472 330.847C94.303 330.847 83.697 329.024 74.6534 325.378C65.6098 321.732 58.5786 316.192 53.5597 308.759C48.5407 301.325 45.9602 291.926 45.8182 280.562H79.483C79.767 285.25 81.0218 289.156 83.2472 292.281C85.4725 295.406 88.5265 297.774 92.4091 299.384C96.339 300.993 100.884 301.798 106.045 301.798C110.78 301.798 114.805 301.159 118.119 299.881C121.481 298.602 124.062 296.827 125.861 294.554C127.66 292.281 128.583 289.677 128.631 286.741C128.583 283.995 127.731 281.652 126.074 279.71C124.417 277.722 121.86 276.017 118.403 274.597C114.994 273.129 110.638 271.779 105.335 270.548L90.1364 266.997C77.5417 264.109 67.6222 259.445 60.3778 253.006C53.1335 246.519 49.535 237.759 49.5824 226.727C49.535 217.731 51.9498 209.848 56.8267 203.077C61.7036 196.306 68.4508 191.027 77.0682 187.239C85.6856 183.451 95.5104 181.557 106.543 181.557C117.812 181.557 127.589 183.474 135.875 187.31C144.208 191.098 150.671 196.424 155.264 203.29C159.857 210.155 162.201 218.11 162.295 227.153H128.631ZM330.071 236.244H294.56C294.086 232.598 293.116 229.308 291.648 226.372C290.18 223.437 288.239 220.927 285.824 218.844C283.409 216.76 280.545 215.174 277.23 214.085C273.963 212.949 270.341 212.381 266.364 212.381C259.309 212.381 253.224 214.109 248.111 217.565C243.045 221.022 239.138 226.017 236.392 232.551C233.693 239.085 232.344 246.992 232.344 256.273C232.344 265.932 233.717 274.028 236.463 280.562C239.257 287.049 243.163 291.95 248.182 295.264C253.248 298.531 259.238 300.165 266.151 300.165C270.033 300.165 273.561 299.668 276.733 298.673C279.953 297.679 282.77 296.235 285.185 294.341C287.647 292.4 289.659 290.056 291.222 287.31C292.831 284.516 293.944 281.367 294.56 277.864L330.071 278.077C329.455 284.516 327.585 290.861 324.46 297.111C321.383 303.361 317.145 309.066 311.747 314.227C306.349 319.341 299.768 323.413 292.003 326.443C284.285 329.473 275.431 330.989 265.44 330.989C252.277 330.989 240.488 328.1 230.071 322.324C219.702 316.5 211.51 308.025 205.497 296.898C199.484 285.771 196.477 272.229 196.477 256.273C196.477 240.269 199.531 226.704 205.639 215.577C211.747 204.45 220.009 195.998 230.426 190.222C240.843 184.445 252.514 181.557 265.44 181.557C274.247 181.557 282.391 182.788 289.872 185.25C297.353 187.665 303.935 191.216 309.616 195.903C315.298 200.544 319.915 206.249 323.466 213.02C327.017 219.791 329.219 227.532 330.071 236.244ZM366.188 329V183.545H465.478V212.097H401.344V241.926H459.157V270.548H401.344V329H366.188Z" fill="#1E1E1E"/>
</svg>
